<svg xmlns="http://www.w3.org/2000/svg" viewBox="0 0 120 120" role="img" aria-label="First Choice Credit Union">
  <defs>
    <linearGradient id="fccuGrad" x1="0%" y1="100%" x2="0%" y2="0%">
      <stop offset="0%" style="stop-color:#0B3D2E"/>
      <stop offset="100%" style="stop-color:#1F7A5C"/>
    </linearGradient>
    <linearGradient id="goldGrad" x1="0%" y1="0%" x2="100%" y2="0%">
      <stop offset="0%" style="stop-color:#8B7340"/>
      <stop offset="50%" style="stop-color:#C4A35A"/>
      <stop offset="100%" style="stop-color:#8B7340"/>
    </linearGradient>
  </defs>
  <circle cx="60" cy="58" r="54" fill="none" stroke="#0B3D2E" stroke-width="2"/>
  <path d="M60 14 L96 30 L96 62 C96 82 82 98 60 106 C38 98 24 82 24 62 L24 30 Z" fill="url(#fccuGrad)" stroke="#0B3D2E" stroke-width="1.5"/>
  <rect x="38" y="52" width="5" height="28" rx="1" fill="#F5F5F0" opacity="0.9"/>
  <rect x="57.5" y="52" width="5" height="28" rx="1" fill="#F5F5F0" opacity="0.9"/>
  <rect x="77" y="52" width="5" height="28" rx="1" fill="#F5F5F0" opacity="0.9"/>
  <rect x="34" y="50" width="52" height="4" rx="1" fill="#F5F5F0" opacity="0.85"/>
  <rect x="34" y="78" width="52" height="3" rx="1" fill="#F5F5F0" opacity="0.85"/>
  <path d="M60 26 L74 44 L66 44 L60 36 L54 44 L46 44 Z" fill="#C4A35A"/>
  <text x="60" y="72" text-anchor="middle" font-family="Georgia, serif" font-size="10" font-weight="bold" fill="#F5F5F0" letter-spacing="1">FCCU</text>
  <rect x="24" y="100" width="72" height="5" rx="1" fill="url(#goldGrad)"/>
</svg>
